<?xml version="1.0" standalone="no"?>
<!DOCTYPE svg PUBLIC "-//W3C//DTD SVG 1.1//EN" "http://www.w3.org/Graphics/SVG/1.1/DTD/svg11.dtd" >
<svg xmlns="http://www.w3.org/2000/svg">
<metadata>Generated by IcoMoon</metadata>
<defs>
<font id="icomoon" horiz-adv-x="1024">
<font-face units-per-em="1024" ascent="960" descent="-64" />
<missing-glyph horiz-adv-x="1024" />
<glyph unicode="&#x20;" horiz-adv-x="512" d="" />
<glyph unicode="&#xe900;" glyph-name="close" d="M103.089 924.155c-18.567 18.567-48.669 18.567-67.235 0s-18.567-48.669 0-67.236l408.914-408.913-401.565-401.568c-18.567-18.564-18.567-48.669 0-67.233s48.669-18.564 67.236 0l401.565 401.565 401.566-401.565c18.564-18.564 48.669-18.564 67.233 0 18.571 18.564 18.571 48.669 0 67.233l-401.563 401.568 408.914 408.913c18.564 18.567 18.564 48.669 0 67.236-18.571 18.567-48.669 18.567-67.24 0l-408.91-408.914-408.914 408.914z" />
<glyph unicode="&#xe901;" glyph-name="comments" d="M0 768c0 106.038 85.962 192 192 192h640c106.042 0 192-85.962 192-192v-384c0-106.042-85.958-192-192-192h-478.58l-218.246-174.598c-54.476-43.578-135.174-4.794-135.174 64.973v685.626zM83.2 82.374l241.035 192.826h507.765c60.090 0 108.8 48.712 108.8 108.8v384c0 60.088-48.71 108.8-108.8 108.8h-640c-60.088 0-108.8-48.712-108.8-108.8v-685.626zM287.5 662.812c0 22.975 18.625 41.6 41.6 41.6h365.805c22.976 0 41.6-18.625 41.6-41.6s-18.624-41.6-41.6-41.6h-365.805c-22.975 0-41.6 18.625-41.6 41.6zM287.5 471.289c0 22.975 18.625 41.6 41.6 41.6h233.537c22.975 0 41.6-18.625 41.6-41.6s-18.625-41.6-41.6-41.6h-233.537c-22.975 0-41.6 18.625-41.6 41.6z" />
<glyph unicode="&#xe902;" glyph-name="connections" d="M850.872 891.038l104.166-104.168-104.166-104.168-104.166 104.168 104.166 104.168zM807.91 942.203c23.726 23.729 62.198 23.729 85.929 0l112.369-112.369c23.726-23.729 23.726-62.2 0-85.929l-112.369-112.369c-23.731-23.729-62.203-23.729-85.929 0l-112.374 112.369c-23.726 23.729-23.726 62.2 0 85.929l112.374 112.369zM261.428 873.91h-174.080v-174.080h174.080v174.080zM850.872 195.758c-48.072 0-87.040-38.968-87.040-87.040s38.968-87.040 87.040-87.040c48.072 0 87.040 38.968 87.040 87.040s-38.968 87.040-87.040 87.040zM20.788 873.91c0 36.76 29.8 66.56 66.56 66.56h174.080c36.76 0 66.56-29.8 66.56-66.56v-174.080c0-36.76-29.8-66.56-66.56-66.56h-174.080c-36.76 0-66.56 29.8-66.56 66.56v174.080zM850.872 262.318c-84.833 0-153.6-68.772-153.6-153.6 0-84.833 68.767-153.6 153.6-153.6 84.828 0 153.6 68.767 153.6 153.6 0 84.828-68.772 153.6-153.6 153.6zM850.867 547.4c18.381 0 33.28-14.9 33.28-33.28v-151.736c0-18.376-14.899-33.28-33.28-33.28s-33.28 14.904-33.28 33.28v151.736c0 18.38 14.899 33.28 33.28 33.28zM427.882 820.152c-18.38 0-33.28-14.9-33.28-33.28s14.9-33.28 33.28-33.28h150.038c18.381 0 33.28 14.9 33.28 33.28s-14.899 33.28-33.28 33.28h-150.038zM498.687 142.925l-77.465 74.854c-12.997 13-12.997 34.068 0 47.068 12.997 12.995 34.068 12.995 47.065 0l152.37-131.671c12.995-12.995 12.995-34.063 0-47.063l-151.969-131.267c-12.997-12.995-34.068-12.995-47.065 0s-12.997 34.068 0 47.063l77.017 74.409h-170.364c-103.211 0-186.88 83.671-186.88 186.88v270.201c0 18.38 14.9 33.28 33.28 33.28s33.28-14.9 33.28-33.28v-270.201c0-66.447 53.869-120.32 120.32-120.32l170.412 0.046z" />
<glyph unicode="&#xe903;" glyph-name="events" horiz-adv-x="819" d="M249.857 363.52c-38.348 0-69.12-30.771-69.12-69.12v-67.584c0-38.349 30.772-69.12 69.12-69.12h118.784c38.348 0 69.12 30.771 69.12 69.12v67.584c0 38.349-30.772 69.12-69.12 69.12h-118.784zM247.297 294.4c0 0.963 0.323 1.51 0.685 1.874s0.913 0.686 1.875 0.686h118.784c0.963 0 1.514-0.323 1.875-0.686s0.685-0.911 0.685-1.874v-67.584c0-0.963-0.323-1.516-0.685-1.874-0.361-0.364-0.912-0.686-1.875-0.686h-118.784c-0.963 0-1.513 0.323-1.875 0.686-0.361 0.358-0.685 0.911-0.685 1.874v67.584zM245.247 878.079c0 18.38-14.9 33.28-33.28 33.28s-33.28-14.9-33.28-33.28v-71.169h-25.087c-84.992 0-153.6-68.608-153.6-153.6v-518.655c0-84.992 68.608-153.6 153.6-153.6h512c84.992 0 153.6 68.608 153.6 153.6v518.655c0 84.992-69.12 153.6-153.6 153.6h-25.6v71.169c0 18.38-14.899 33.28-33.28 33.28s-33.28-14.9-33.28-33.28v-71.169h-130.561v71.169c0 18.38-14.9 33.28-33.28 33.28s-33.28-14.9-33.28-33.28v-71.169h-131.073v71.169zM178.687 740.351v-80.383c0-18.38 14.9-33.28 33.28-33.28s33.28 14.9 33.28 33.28v80.383h131.073v-80.383c0-18.38 14.9-33.28 33.28-33.28s33.28 14.9 33.28 33.28v80.383h130.561v-80.383c0-18.38 14.899-33.28 33.28-33.28s33.28 14.9 33.28 33.28v80.383h25.6c48.128 0 87.040-38.912 87.040-87.040v-120.833h-686.080v120.833c0 48.128 38.912 87.040 87.040 87.040h25.087zM66.56 465.918h686.080v-331.262c0-48.128-38.912-87.040-87.040-87.040h-512c-48.128 0-87.040 38.912-87.040 87.040v331.262z" />
<glyph unicode="&#xe904;" glyph-name="friends" d="M409.019 874.667c126.343 0 224.541-109.986 210.273-235.521l-12.425-109.319c-11.435-100.626-96.575-176.641-197.849-176.641s-186.416 76.015-197.85 176.641l-12.423 109.319c-14.265 125.535 83.93 235.521 210.273 235.521zM545.634 536.785l12.423 109.319c10.111 88.976-59.489 166.933-149.038 166.933s-159.148-77.957-149.038-166.933l12.422-109.319c7.896-69.482 66.686-121.97 136.615-121.97s128.72 52.487 136.615 121.97zM321.143 305.778h175.753c133.32 0 248.747-92.598 277.67-222.737l4.739-21.322c4.608-20.725-11.162-40.385-32.393-40.385h-675.782c-21.23 0-37.001 19.661-32.395 40.385l4.738 21.322c28.921 130.139 144.352 222.737 277.671 222.737zM711.020 82.961c-27.261 94.902-114.29 161.189-214.125 161.189h-175.753c-99.834 0-186.862-66.287-214.126-161.189h604.003zM614.992 353.185c-18.022 0-24.451 21.891-13.164 35.942 2.224 2.767 4.392 5.581 6.502 8.441 7.782 10.538 19.695 17.233 32.563 19.691 58.072 11.096 103.817 58.826 110.711 119.526l12.425 109.319c8.573 75.469-40.198 143.010-109.847 161.777-16.708 4.502-32.273 13.369-43.15 26.828-2.355 2.911-4.762 5.774-7.231 8.586-10.485 11.938-4.699 31.371 11.19 31.371 126.339 0 224.535-109.986 210.273-235.521l-12.425-109.319c-11.435-100.626-96.575-176.641-197.848-176.641zM858.755 21.333c-16.242 0-27.824 16.668-28.001 32.91-0.165 14.882 10.485 28.718 25.367 28.718h60.871c-20.719 72.118-75.947 127.71-145.078 150.244-9.893 3.226-18.239 7.89-24.644 16.088-17.232 22.067-2.207 54.75 24.946 47.935 102.451-25.737 184.57-107.298 208.321-214.187l4.739-21.322c4.602-20.725-11.167-40.385-32.398-40.385h-94.123z" />
<glyph unicode="&#xe905;" d="M512-64c282.772 0 512 229.228 512 512 0 282.774-229.228 512-512 512-282.774 0-512-229.226-512-512 0-282.772 229.226-512 512-512z" />
<glyph unicode="&#xe906;" d="M291.206 679.063v-174.166c26.517 31.616 58.304 47.531 95.168 47.531 18.986 0 35.989-3.627 51.242-10.816 15.296-7.147 26.73-16.32 34.454-27.456 7.765-11.243 13.013-23.552 15.85-37.12 2.816-13.504 4.224-34.52 4.224-63.017v-186.22h-82.39v167.721c0 33.28-1.493 54.359-4.629 63.319-2.938 8.777-8.767 16.298-16.534 21.334-7.936 5.354-17.814 8-29.738 8-13.654 0-25.899-3.414-36.544-10.198-10.88-6.826-18.688-17.024-23.638-30.655-5.034-13.655-7.552-33.812-7.466-60.503l-0.086-159.017h-82.282v451.263h82.368zM615.624 679.063v-174.166c26.537 31.616 58.301 47.531 95.145 47.531 18.924 0 36.055-3.627 51.328-10.816 15.232-7.147 26.665-16.32 34.345-27.456 7.752-11.168 13.143-23.799 15.852-37.12 2.836-13.504 4.244-34.52 4.244-63.017v-186.22h-82.304v167.721c0 33.28-1.556 54.359-4.69 63.319-2.939 8.789-8.786 16.314-16.579 21.334-7.849 5.354-17.812 8-29.737 8-13.635 0-25.876-3.414-36.547-10.198-10.732-6.826-18.58-17.024-23.593-30.655-4.951-13.655-7.465-33.812-7.465-60.503v-159.017h-82.284v451.263h82.284z" />
<glyph unicode="&#xe907;" glyph-name="invoices" d="M277.014 551.291c-20.423 0-36.978 16.556-36.978 36.978v48.362h-48.356c-20.423 0-36.978 16.556-36.978 36.978s16.555 36.978 36.978 36.978h48.356v48.349c0 20.423 16.555 36.978 36.978 36.978s36.978-16.555 36.978-36.978v-48.349h48.356c20.422 0 36.978-16.555 36.978-36.978s-16.556-36.978-36.978-36.978h-48.356v-48.362c0-20.422-16.556-36.978-36.978-36.978zM363.501 125.065c-14.441-14.444-37.854-14.444-52.295 0l-34.196 34.196-34.192-34.19c-14.441-14.444-37.854-14.444-52.295 0-14.441 14.438-14.441 37.854 0 52.292l34.192 34.19-34.189 34.19c-14.441 14.444-14.441 37.854 0 52.292 14.441 14.444 37.854 14.444 52.295 0l34.189-34.185 34.193 34.19c14.441 14.444 37.854 14.444 52.295 0 14.441-14.438 14.441-37.854 0-52.292l-34.193-34.196 34.196-34.196c14.441-14.438 14.441-37.854 0-52.292zM697.236 308.372c-20.423 0-36.978-16.555-36.978-36.978s16.555-36.978 36.978-36.978h113.778c20.423 0 36.978 16.555 36.978 36.978s-16.555 36.978-36.978 36.978h-113.778zM660.258 155.563c0 20.417 16.555 36.978 36.978 36.978h113.778c20.423 0 36.978-16.56 36.978-36.978 0-20.423-16.555-36.978-36.978-36.978h-113.778c-20.423 0-36.978 16.555-36.978 36.978zM660.258 673.605c0 20.423 16.555 36.978 36.978 36.978h113.778c20.423 0 36.978-16.555 36.978-36.978s-16.555-36.978-36.978-36.978h-113.778c-20.423 0-36.978 16.556-36.978 36.978zM853.333-64h-682.667c-94.256 0-170.667 76.407-170.667 170.667v682.667c0 5.891 0.298 11.712 0.881 17.45 8.74 86.060 81.42 153.217 169.786 153.217h682.667c94.259 0 170.667-76.41 170.667-170.667v-682.667c0-94.259-76.407-170.667-170.667-170.667zM73.956 789.333v-304.142h401.19v400.853h-304.479c-53.412 0-96.711-43.299-96.711-96.711zM73.956 411.236v-304.569c0-53.413 43.299-96.711 96.711-96.711h304.479v401.28h-401.19zM549.101 9.956h304.232c53.413 0 96.711 43.298 96.711 96.711v304.569h-400.943v-401.28zM950.044 485.191v304.142c0 53.412-43.298 96.711-96.711 96.711h-304.232v-400.853h400.943z" />
<glyph unicode="&#xe908;" glyph-name="link_arrow" d="M346.149 154.16c13.166 0 25.6 5.12 35.109 15.36 17.554 19.749 16.091 49.737-2.926 67.291l-211.467 198.946h590.163c94.932 0 171.886-76.956 171.886-171.886v-130.17c0-26.258 21.285-47.543 47.543-47.543s47.543 21.285 47.543 47.543v130.17c0 147.444-119.53 266.971-266.971 266.971h-590.859l0.007 1.134 209.229 176.603c19.749 17.554 20.48 47.543 2.926 67.292-17.554 19.017-47.543 20.48-67.291 2.926l-294.033-256.329c-22.674-20.48-22.674-55.589 0-76.069l296.961-279.807c9.509-8.777 20.48-12.434 32.183-12.434z" />
<glyph unicode="&#xe909;" glyph-name="map" d="M290.669 549.335c0 122.239 99.094 221.334 221.333 221.334s221.333-99.094 221.333-221.334c0-122.239-99.094-221.333-221.333-221.333s-221.333 99.094-221.333 221.333zM512.002 701.335c-83.948 0-152-68.052-152-152s68.052-152 152-152c83.948 0 152 68.053 152 152s-68.052 152-152 152zM491.926 921.072c-174.454-10.535-347.381-133.733-350.558-360.584-1.005-71.805 21.818-144.458 54.464-211.6 32.764-67.384 76.433-131.275 119.592-186.174 43.235-54.995 86.495-101.632 118.914-134.515 17.754-18.003 35.778-35.789 54.666-52.608 0.010-0.006 2.379 2.63 0 0 13.121-11.622 32.892-11.654 46.013-0.032 18.932 16.8 36.938 34.624 54.704 52.64 32.419 32.883 75.679 79.52 118.915 134.515 43.16 54.899 86.833 118.79 119.594 186.174 32.646 67.142 55.469 139.795 54.464 211.6-0.186 13.294-1.357 28.058-3.296 43.935-27.546 225.455-212.936 327.189-387.473 316.649zM512.030 48.902c-7.864 7.558-17.455 16.96-28.323 27.981-31.145 31.584-72.561 76.256-113.777 128.685-41.292 52.518-81.846 112.147-111.745 173.638-30.015 61.73-48.289 123.298-47.491 180.311 2.564 183.119 139.253 283.521 285.411 292.348 146.076 8.822 292.292-74.322 314.474-255.85 1.734-14.218 2.65-26.39 2.79-36.498 0.794-57.013-17.478-118.581-47.493-180.31-29.898-61.491-70.454-121.12-111.746-173.638-41.216-52.429-82.633-97.101-113.777-128.685-10.868-11.021-20.46-20.422-28.323-27.981z" />
<glyph unicode="&#xe90a;" glyph-name="notes" d="M765.488 912.309h-401.572c-83.167 0-150.588-67.421-150.588-150.588v-501.962c0-83.167 67.421-150.588 150.588-150.588h401.572c83.167 0 150.588 67.421 150.588 150.588v501.962c0 83.167-67.421 150.588-150.588 150.588zM363.916 847.054h401.572c47.128 0 85.329-38.205 85.329-85.334v-501.962c0-47.128-38.201-85.329-85.329-85.329h-401.572c-47.128 0-85.333 38.201-85.333 85.329v501.962c0 47.129 38.205 85.334 85.333 85.334zM80.309 611.132v-471.844c0-90.1 73.039-163.135 163.137-163.135h421.648c18.016 0 32.629 14.607 32.629 32.629 0 18.016-14.613 32.623-32.629 32.623h-421.648c-54.059 0-97.882 43.827-97.882 97.882v471.844c0 18.020-14.608 32.628-32.627 32.628s-32.627-14.608-32.627-32.628zM583.5 684.043c0 18.020-14.608 32.628-32.627 32.628l-135.738 0.001c-18.020 0-32.628-14.608-32.628-32.628s14.608-32.628 32.628-32.628h135.738c18.019 0 32.627 14.608 32.627 32.627zM714.198 475.234h-299.063c-18.020 0-32.628 14.608-32.628 32.627s14.608 32.628 32.628 32.628h299.063c18.016 0 32.623-14.608 32.623-32.628s-14.607-32.627-32.623-32.627zM746.821 331.68c0 18.016-14.607 32.625-32.623 32.625h-299.063c-18.020 0-32.628-14.608-32.628-32.625 0-18.022 14.608-32.629 32.628-32.629h299.063c18.016 0 32.623 14.607 32.623 32.629z" />
<glyph unicode="&#xe90b;" glyph-name="photos" d="M345.983 671.374c0 69.307 56.184 125.491 125.49 125.491s125.49-56.184 125.49-125.491c0-69.306-56.184-125.49-125.49-125.49s-125.49 56.184-125.49 125.49zM411.238 671.374c0-33.267 26.968-60.235 60.235-60.235s60.235 26.969 60.235 60.235c0 33.267-26.969 60.235-60.235 60.235s-60.235-26.968-60.235-60.235zM916.076 779.294v-502.061c0-83.167-67.421-150.588-150.588-150.588l-401.572 0.102c-83.167 0-150.588 67.421-150.588 150.588v501.959c0 83.167 67.421 150.588 150.588 150.588h401.572c83.167 0 150.588-67.421 150.588-150.588zM765.488 192c47.128 0 85.329 38.207 85.329 85.335v70.517l-89.052 128.809c-26.841 38.823-84.745 37.19-109.358-3.082l-172.077-281.58h285.157zM815.441 513.771l35.376-51.172v316.695c0 47.128-38.201 85.334-85.329 85.334h-401.572c-47.128 0-85.333-38.205-85.333-85.334v-501.959c0-47.128 38.205-85.335 85.333-85.335h39.94l192.87 315.607c49.222 80.545 165.033 83.809 218.714 6.164zM112.936 661.334c-18.020 0-32.627-14.608-32.627-32.628v-471.841c0-90.1 73.039-163.141 163.138-163.141h421.648c18.016 0 32.629 14.607 32.629 32.629s-14.613 32.629-32.629 32.629h-421.648c-54.059 0-97.883 43.821-97.883 97.882v471.841c0 18.019-14.608 32.628-32.627 32.628z" />
<glyph unicode="&#xe90c;" glyph-name="preloader" d="M599.010 117.29c-46.421-21.342-98.072-33.573-152.922-33.573-200.777 0-364.285 162.99-364.285 364.283 0 201.329 162.957 364.286 364.285 364.286 201.22 0 363.699-163.435 363.699-364.286 0-6.434-0.169-12.83-0.494-19.185l-64.244 68.619c-7.648 8.239-18.241 12.359-28.248 12.359-9.414 0-18.243-2.942-24.717-10.593-15.301-14.712-16.479-38.841-1.766-54.142l128.882-138.299c15.89-17.655 43.552-17.655 60.028 0l128.883 138.299c14.71 15.301 13.538 39.43-1.766 54.142s-39.428 13.536-54.145-1.766l-66.426-70.959c0.346 7.15 0.516 14.327 0.516 21.524 0 242.884-196.511 440.791-440.202 440.791-243.581 0-440.791-197.209-440.791-440.791 0-243.618 197.834-440.793 440.791-440.793 66.383 0 128.901 14.837 184.881 40.579 19.195 8.821 27.601 31.539 18.776 50.734s-31.54 27.599-50.735 18.771z" />
<glyph unicode="&#xe90d;" glyph-name="profile" d="M259.673 677.375l14.907-131.184c13.722-120.751 115.892-211.969 237.421-211.969 121.531 0 223.697 91.217 237.419 211.969l14.911 131.183c17.118 150.642-100.716 282.626-252.33 282.626-151.612 0-269.447-131.983-252.328-282.625zM690.847 685.725l-14.911-131.184c-9.472-83.378-80.020-146.364-163.936-146.364s-154.464 62.986-163.938 146.364l-14.907 131.184c-12.133 106.772 71.386 200.319 178.846 200.319s190.981-93.548 178.846-200.319zM73.344 10.047l-5.685-25.583c-5.527-24.872 13.398-48.464 38.874-48.464h810.937c25.475 0 44.402 23.592 38.872 48.464l-5.683 25.583c-34.708 156.171-173.227 267.287-333.206 267.287h-210.903c-159.982 0-298.5-111.115-333.205-267.287zM617.453 203.378c119.799 0 224.236-79.542 256.952-193.422h-724.807c32.716 113.88 137.151 193.422 256.951 193.422h210.903z" />
<glyph unicode="&#xe90e;" glyph-name="schedule" d="M321.435 732.508c-20.429 0-36.991-16.548-36.991-36.961s16.561-36.96 36.991-36.96h381.296c20.429 0 36.989 16.548 36.989 36.96s-16.56 36.961-36.989 36.961h-381.296zM284.444 524.96c0 20.413 16.561 36.961 36.991 36.961h381.29c20.434 0 36.995-16.548 36.995-36.961s-16.56-36.961-36.995-36.961h-381.29c-20.429 0-36.991 16.548-36.991 36.961zM284.444 354.372c0 20.412 16.561 36.961 36.991 36.961h182.111c20.429 0 36.991-16.55 36.991-36.961s-16.561-36.961-36.991-36.961h-182.111c-20.429 0-36.991 16.549-36.991 36.961zM113.778 27.386l0.508 784.709c0 81.651 66.246 147.842 147.964 147.842h500.010c81.715 0 147.962-66.191 147.962-147.842l-0.506-785.022c0-71.327-78.404-114.916-139.059-77.312l-95.299 59.079c-11.838 7.339-26.947 6.747-38.176-1.49l-73.281-53.766c-32.069-23.529-75.714-23.529-107.784 0l-72.734 53.362c-11.316 8.3-26.56 8.835-38.424 1.337l-91.458-57.793c-60.628-38.309-139.723 5.217-139.723 76.897zM835.76 27.119l0.506 784.976c0 40.749-33.075 73.887-74.007 73.887h-500.010c-40.932 0-74.008-33.186-74.008-73.935l-0.508-784.678c0.012-13.306 14.79-21.606 26.262-14.359l91.458 57.793c37.571 23.74 85.844 22.062 121.678-4.227l72.734-53.367c6.032-4.42 14.256-4.42 20.288 0l73.281 53.766c35.56 26.089 83.405 27.961 120.892 4.722l95.295-59.079c11.486-7.117 26.14 1.252 26.14 14.501z" />
<glyph unicode="&#xe90f;" glyph-name="settings" d="M725.344 447.997c0 117.821-95.516 213.333-213.336 213.333s-213.334-95.512-213.334-213.333c0-117.821 95.513-213.335 213.334-213.335s213.336 95.514 213.336 213.335zM656.006 447.997c0-79.529-64.47-143.997-143.999-143.997s-144 64.468-144 143.997c0 79.529 64.471 144 144 144s143.999-64.471 143.999-144zM457.77 927.734c-47.238 0-87.242-34.835-93.736-81.624-8.054-58.027-68.572-92.967-122.852-70.929-43.768 17.771-93.938 0.544-117.556-40.365l-51.026-88.38c-23.333-40.413-13.723-91.802 22.636-121.052 47.019-37.827 46.245-110.775-2.027-148.356-37.274-29.019-47.44-81.078-23.821-121.987l51.026-88.384c23.332-40.41 72.641-57.786 116.153-40.922 56.268 21.805 119.057-15.341 127.467-75.936 6.495-46.784 46.499-81.619 93.736-81.619h102.052c46.666 0 86.367 34.016 93.516 80.128 9.728 62.707 74.938 100.358 134.112 77.427 43.507-16.864 92.819 0.512 116.154 40.922l51.021 88.384c23.622 40.909 13.453 92.968-23.821 121.987-48.269 37.581-49.043 110.53-2.022 148.356 36.358 29.251 45.965 80.639 22.637 121.052l-51.027 88.38c-23.622 40.909-73.792 58.136-117.555 40.365-56.685-23.014-120.25 12.79-129.498 72.423-7.149 46.113-46.851 80.13-93.516 80.13h-102.052zM432.709 836.578c1.736 12.509 12.432 21.823 25.061 21.823h102.052c12.477 0 23.091-9.095 25.003-21.424 16.232-104.653 126.733-165.564 224.090-126.036 11.699 4.751 25.114 0.145 31.43-10.792l51.027-88.38c6.234-10.805 3.667-24.544-6.054-32.365-82.515-66.384-80.013-192.538 2.893-257.086 9.965-7.759 12.685-21.679 6.368-32.616l-51.021-88.378c-6.24-10.803-19.424-15.45-31.059-10.944-100.454 38.931-211.162-24.986-227.674-131.45-1.912-12.326-12.526-21.421-25.003-21.421h-102.052c-12.629 0-23.325 9.312-25.061 21.824-14.445 104.077-122.447 169.318-221.196 131.046-11.633-4.506-24.816 0.141-31.054 10.944l-51.026 88.378c-6.315 10.938-3.597 24.858 6.369 32.616 82.909 64.548 85.411 190.702 2.894 257.086-9.721 7.821-12.29 21.56-6.052 32.365l51.026 88.38c6.315 10.938 19.728 15.543 31.43 10.792 96.147-39.037 203.343 22.853 217.61 125.636z" />
<glyph unicode="&#xe910;" glyph-name="statictics" d="M911.821 38.559v438.401c0 61.266-49.664 110.933-110.933 110.933s-110.933-49.667-110.933-110.933v-438.401h-67.015v178.847c0 61.264-49.67 110.933-110.934 110.933-61.266 0-110.933-49.67-110.933-110.933v-178.847h-67.022v324.623c0 61.266-49.667 110.933-110.933 110.933s-110.933-49.667-110.933-110.933v-324.623h-59.067c-20.422 0-36.978-16.555-36.978-36.978s16.556-36.978 36.978-36.978h113.084c0.009 0-0.009 0 0 0h113.805c0.013 0-0.013 0 0 0h175.060c0.017 0-0.017 0 0 0h113.83c0.017 0 0.040 0 0.057 0h174.979c0.023 0 0.046 0 0.068 0h113.778c0.023 0 0.046 0 0.074 0h113.044c20.423 0 36.978 16.555 36.978 36.978s-16.555 36.978-36.978 36.978h-59.073zM837.865 38.559h-73.956v438.401c0 20.422 16.555 36.978 36.978 36.978s36.978-16.556 36.978-36.978v-438.401zM186.139 38.559v324.623c0 20.422 16.555 36.978 36.978 36.978s36.978-16.556 36.978-36.978v-324.623h-73.956zM475.027 38.559v178.847c0 20.417 16.556 36.978 36.978 36.978s36.978-16.56 36.978-36.978v-178.847h-73.956zM914.665 778.472c0-62.838-50.938-113.778-113.778-113.778-19.126 0-37.148 4.718-52.964 13.054l-130.076-120.557c-0.324 0.824-0.66 1.643-1.007 2.457 5.757-13.612 8.943-28.578 8.943-44.287 0-62.838-50.938-113.778-113.778-113.778-62.838 0-113.778 50.94-113.778 113.778 0 3.699 0.176 7.357 0.522 10.965l-99.796 53.549c-20.127-18.009-46.704-28.959-75.837-28.959-62.838 0-113.778 50.94-113.778 113.778s50.94 113.778 113.778 113.778c62.838 0 113.778-50.94 113.778-113.778 0-6.922-0.618-13.699-1.802-20.28l94.438-50.674c-1.842-1.938-3.617-3.941-5.321-6.005 20.869 25.287 52.45 41.404 87.797 41.404 21.070 0 40.802-5.727 57.726-15.709 0 0 0 0 0 0l127.465 118.14c-6.48 14.301-10.086 30.181-10.086 46.903 0 62.838 50.938 113.778 113.778 113.778s113.778-50.94 113.778-113.778zM840.71 778.472c0-21.993-17.829-39.822-39.822-39.822s-39.822 17.829-39.822 39.822c0 21.993 17.829 39.822 39.822 39.822s39.822-17.829 39.822-39.822zM262.938 664.694c0-21.993-17.829-39.822-39.822-39.822s-39.822 17.829-39.822 39.822c0 21.993 17.829 39.822 39.822 39.822s39.822-17.829 39.822-39.822zM512.005 475.539c21.993 0 39.822 17.829 39.822 39.822s-17.829 39.822-39.822 39.822c-21.993 0-39.822-17.829-39.822-39.822s17.829-39.822 39.822-39.822z" />
<glyph unicode="&#xe911;" glyph-name="sync" d="M579.083 661.386c-7.463 7.012-11.785 16.535-11.722 27.404 0.565 20.543 17.365 36.764 37.493 36.588l122.447 0.922 0.592 0.637c-59.665 46.245-134.564 73.771-215.893 73.771-194.797 0-352.711-157.914-352.711-352.711 0-10.478 0.457-20.851 1.352-31.097 1.657-18.97-9.324-37.286-27.563-42.758-21.027-6.309-43.078 6.81-45.378 28.642-1.565 14.857-2.367 29.941-2.367 45.213 0 235.642 191.025 426.667 426.667 426.667 100.366 0 192.637-34.654 265.5-92.65l-10.61 115.849c-1.843 20.468 13.71 37.857 34.179 39.704 20.076 1.432 37.854-13.709 39.703-34.177l16.367-207.742c1.951-23.684-16.748-43.587-40.505-43.121l-212.685-1.23c-10.064 0.088-18.231 3.858-24.866 10.090zM414.734 260.631c7.463-7.014 11.785-16.538 11.723-27.403-0.566-20.548-17.365-36.767-37.494-36.591l-122.445-0.922-0.481-0.518c63.537-61.827 150.303-99.914 245.963-99.914 194.799 0 352.711 157.918 352.711 352.713 0 21.734-1.968 43.009-5.729 63.656-3.504 19.232 6.349 38.969 24.718 45.649 20.105 7.31 42.371-3.781 46.586-24.751 5.495-27.331 8.38-55.605 8.38-84.555 0-235.642-191.027-426.669-426.667-426.669-114.811 0-219.031 45.352-295.726 119.114l10.651-116.287c1.847-20.469-13.709-37.86-34.177-39.708-20.078-1.428-37.857 13.71-39.703 34.179l-16.369 207.741c-1.947 23.683 16.75 43.588 40.509 43.122l212.683 1.229c10.065-0.085 18.232-3.857 24.866-10.086z" />
<glyph unicode="&#xe912;" glyph-name="telegram" d="M512 944c-274.016 0-496-222.016-496-496 0-273.981 222.016-496 496-496 274.017 0 496 222.019 496 496 0 273.984-222.019 496-496 496zM755.615 604.192l-81.408-383.617c-6.016-27.197-22.205-33.792-44.8-20.992l-123.999 91.392-59.808-57.6c-6.591-6.589-12.192-12.191-24.992-12.191l8.8 126.208 229.792 207.616c10.015 8.8-2.207 13.792-15.427 4.992l-283.997-178.785-122.4 38.211c-26.592 8.381-27.2 26.593 5.6 39.391l478.206 184.416c22.211 8 41.6-5.408 34.401-39.008l0.031-0.032z" />
<glyph unicode="&#xe913;" glyph-name="time" d="M546.667 653.15c0 19.146-15.521 34.667-34.667 34.667s-34.667-15.521-34.667-34.667v-240c0-19.146 15.521-34.667 34.667-34.667h213.331c19.149 0 34.669 15.521 34.669 34.667s-15.52 34.667-34.669 34.667h-178.664v205.333zM32 448c0 265.097 214.903 480 480 480 265.094 0 480-214.903 480-480 0-265.094-214.906-480-480-480-265.097 0-480 214.906-480 480zM512 858.667c-226.805 0-410.667-183.862-410.667-410.667 0-226.803 183.862-410.669 410.667-410.669 226.803 0 410.669 183.866 410.669 410.669 0 226.805-183.866 410.667-410.669 410.667z" />
<glyph unicode="&#xe914;" d="M512-28.626c263.235 0 476.626 213.391 476.626 476.626 0 263.233-213.391 476.625-476.626 476.625-263.233 0-476.625-213.392-476.625-476.625 0-263.235 213.392-476.626 476.625-476.626z" />
<glyph unicode="&#xe915;" d="M301.423 622.639c0 0 75.59-85.457 200.704-99.421 0 0-5.958 71.494 57.53 111.336 0 0 65.536 43.753 115.246-19.921 0 0 47.662 9.868 65.536 21.784 0 0-13.962-26.997-37.796-50.269l53.622 10.612-49.71-53.62c0 0 19.922-180.781-177.802-276.105 0 0-153.974-55.67-261.215 17.869 0 0 131.072 19.922 145.036 49.715 0 0-69.632 8.003-87.505 67.584l37.795 2.048c0 0-65.536 5.955-73.542 99.419l43.752-5.958c0.186-0.186-69.446 19.549-31.651 124.928z" />
<glyph unicode="&#xe916;" glyph-name="watch" d="M476.472 597.47c19.261 4.561 35.528-11.916 35.528-31.71v-51.2c0-36.76 29.804-66.56 66.56-66.56h51.2c19.794 0 36.275-16.269 31.713-35.53-16.036-67.7-76.872-118.070-149.473-118.070-84.829 0-153.598 68.769-153.598 153.6 0 72.601 50.37 133.438 118.070 149.47zM512 806.4c-249.891 0-416.448-187.118-489.632-290.946-28.824-40.894-28.824-94.014 0-134.908 73.184-103.831 239.74-290.946 489.632-290.946 249.897 0 416.451 187.116 489.636 290.946 28.826 40.894 28.826 94.014 0 134.908-73.185 103.828-239.739 290.946-489.636 290.946zM189.887 605.323c-48.481-43.54-86.408-90.324-113.116-128.216-12.616-17.898-12.616-40.316 0-58.214 26.708-37.892 64.635-84.676 113.115-128.215-23.24 47.493-36.285 100.884-36.285 157.322s13.045 109.83 36.285 157.323zM512 156.16c-161.177 0-291.838 130.662-291.838 291.84s130.661 291.84 291.838 291.84c161.183 0 291.84-130.661 291.84-291.84s-130.657-291.84-291.84-291.84zM834.115 605.323c48.481-43.54 86.41-90.324 113.116-128.216 12.616-17.898 12.616-40.316 0-58.214-26.706-37.892-64.635-84.676-113.116-128.215 23.24 47.493 36.285 100.884 36.285 157.322s-13.046 109.83-36.285 157.323z" />
<glyph unicode="&#xe917;" glyph-name="balance" d="M0.249 638.741l0.197 175.932c7.57 80.883 144.66 145.327 312.666 145.327 12.714 0 25.25-0.369 37.567-1.086 146.108-8.459 261.224-65.343 273.933-136.304 0.529-2.627 0.916-5.273 1.166-7.937v-135.076c0-19.88-16.725-35.661-36.608-35.922-20.264-0.266-37.348 15.675-37.348 35.944v32.754c-57.394-32.611-143.136-53.315-238.933-53.315-95.598 0-181.183 20.618-238.575 53.112l-0.063-73.429h0.1c0.874-2.524 6.98-19.257 49.591-39.749 36.3-17.458 101.725-33.020 166.77-38.203 7.735-0.617 15.444-1.067 23.099-1.362 16.229-0.624 22.645-31.226 12.77-44.12-13.775-17.985-31.792-29.478-54.338-27.265-76.62 7.518-147.772 28.606-198.071 57.488l-0.067-77.456h0.246c0.874-2.524 6.98-19.257 49.591-39.749 32.29-15.53 91.651-27.847 148.346-33.461 19.684-1.949 35.219-18.169 35.219-37.949 0-21.1-17.62-38.047-38.615-35.914-75.247 7.657-145.211 27.773-194.865 55.529l-0.067-77.739c0.106-0.415 0.316-1.052 0.737-1.951 0.896-1.911 2.811-5.114 6.69-9.353 8.046-8.801 22.365-19.672 44.645-30.259 32.134-15.269 91.155-27.318 146.99-32.853 19.681-1.951 35.211-18.17 35.211-37.945 0-21.111-17.622-38.059-38.62-35.908-141.741 14.512-265.828 73.637-269.613 144.959l0.293 340.906c-0.029 0.784-0.044 1.568-0.044 2.354zM498.348 850.644c-37.977 17.713-90.917 30.936-152.4 34.466-10.731 0.612-21.725 0.933-32.947 0.935-75.395-0.014-140.562-14.616-185.125-35.401-22.279-10.391-36.92-21.16-45.385-30.073-4.098-4.314-6.247-7.661-7.318-9.781-0.37-0.732-0.614-1.32-0.776-1.776v-0.28c1.69-4.24 9.856-19.987 49.298-38.955 44.593-21.445 111.394-36.766 189.194-36.766s144.601 15.32 189.194 36.766c42.286 20.336 48.623 36.969 49.572 39.689-0.15 0.374-0.346 0.814-0.604 1.322-1.071 2.12-3.22 5.466-7.318 9.781-8.466 8.913-23.107 19.681-45.386 30.073zM395.325 88.673c4.368-83.803 142.781-151.068 312.89-151.068s308.52 67.265 312.889 151.068l-0.432 330.316c0.501 3.478 0.757 6.988 0.757 10.527 0 83.103-140.089 150.471-312.889 150.471-166.892 0-303.265-62.837-312.402-141.998-0.35-2.043-0.622-4.097-0.812-6.161v-173.404h-0.197c0-1.803 0.066-3.601 0.197-5.387v-164.363zM470.172 428.411c3.27 6.883 14.822 23.325 53.048 41.478 44.464 21.116 109.504 35.952 184.773 35.952 75.264 0 140.305-14.835 184.769-35.952 40.704-19.33 51.166-36.721 53.584-42.695-2.856-5.755-12.942-20.276-48.612-37.432-44.595-21.441-111.394-36.762-189.195-36.762s-144.602 15.32-189.195 36.762c-38.543 18.538-47.219 33.997-49.172 38.649zM469.281 332.544c57.396-32.717 143.281-53.498 239.259-53.498 95.442 0 180.901 20.548 238.29 52.952l0.097-73.574h-0.148c-0.876-2.52-6.98-19.257-49.59-39.748-44.59-21.447-111.388-36.767-189.184-36.767s-144.593 15.32-189.184 36.767c-41.865 20.133-48.491 36.636-49.54 39.606v74.263zM708.005 107.952c95.863 0 181.658 20.736 239.047 53.39l0.091-69.319c-0.836-3.277-7.657-22.022-52.537-43.736-44.459-21.504-110.148-36.727-186.391-36.727-76.248 0-141.937 15.223-186.39 36.727-44.962 21.754-51.725 40.528-52.544 43.753v69.114c57.391-32.546 143.043-53.202 238.724-53.202z" />
<glyph unicode="&#xe918;" glyph-name="bar" d="M24 829.033c0 21.881 17.738 39.619 39.619 39.619h896.761c21.884 0 39.621-17.738 39.621-39.619s-17.737-39.619-39.621-39.619l-896.761-0.001c-21.881 0-39.619 17.739-39.619 39.619zM24 60.043c0 21.884 17.738 39.621 39.619 39.621h896.761c21.884 0 39.621-17.737 39.621-39.621 0-21.877-17.737-39.614-39.621-39.614h-896.761c-21.881 0-39.619 17.737-39.619 39.614zM24.002 447.999c0 21.881 17.738 39.619 39.619 39.619h896.766c21.877 0 39.614-17.739 39.614-39.619s-17.737-39.619-39.614-39.619h-896.766c-21.881 0-39.619 17.738-39.619 39.619z" />
<glyph unicode="&#xe919;" glyph-name="chevron_down" d="M73.101 653.177c0 18.432 7.168 35.84 21.504 49.152 27.648 24.576 69.632 22.528 94.208-4.096l322.177-357.698 309.024 357.298c24.576 27.648 66.56 28.672 94.208 4.096 26.624-24.576 28.672-66.56 4.096-94.208l-354.080-407.473c-28.672-31.744-77.824-31.744-106.496 0l-367.233 407.873c-12.288 13.312-17.408 28.672-17.408 45.056z" />
<glyph unicode="&#xe91a;" glyph-name="chevron_up" d="M22.729 203.383c0-12.8 4.978-24.888 14.933-34.133 19.2-17.067 48.355-15.644 65.422 2.845l408.2 452.916 394.666-455.763c17.067-19.2 46.225-19.911 65.425-2.844 18.483 17.067 19.908 46.222 2.842 65.422l-425.955 490.607c-19.911 22.045-54.044 22.045-73.956 0l-439.488-487.76c-8.533-9.244-12.089-19.911-12.089-31.289z" />
</font>
</defs>
</svg>
